<svg width="458" height="126" viewBox="0 0 458 126" fill="none" xmlns="http://www.w3.org/2000/svg">
<g clip-path="url(#clip0)">
<path d="M11.861 35.3221L35.2757 11.9073C50.3943 -3.21129 74.9552 -3.21129 90.0738 11.9073L114.253 36.0316C129.371 51.1502 129.371 75.7111 114.253 90.8297L90.838 114.244C75.7193 129.363 51.7042 128.271 36.0398 114.244L11.9155 90.1202C-3.25766 75.0016 -3.25766 50.4952 11.861 35.3221Z" fill="black"/>
<path d="M62.6695 23.2719L46.8848 39.0566L62.6695 54.8413L78.4542 39.0566L62.6695 23.2719Z" fill="white"/>
<path d="M63.5486 123.524C53.2331 123.524 43.5179 119.485 36.2042 112.171L14.1539 90.1209C-1.01928 75.0023 -0.964701 51.26 14.2085 36.0323L16.61 33.5762L93.1855 109.824L90.8931 112.226C83.5794 119.539 73.8642 123.524 63.5486 123.524Z" fill="white"/>
<path d="M16.6645 35.5955L91.2206 109.824L89.9106 111.189C82.8698 118.229 73.5367 122.105 63.5486 122.105C53.6151 122.105 44.2273 118.229 37.1865 111.189L15.1363 89.1383C8.0955 82.0975 4.27491 72.8736 4.27491 63.1038C4.27491 53.3886 8.20466 44.11 15.2455 37.0692L16.6645 35.5955ZM16.61 31.5566L13.226 35.0497C-2.4384 50.7142 -2.60214 75.4934 13.0623 91.1578L35.1125 113.208C42.972 121.068 53.233 124.943 63.494 124.943C73.755 124.943 84.016 121.013 91.8755 113.208L95.1503 109.824L16.61 31.5566Z" fill="black"/>
<path d="M75.3378 94.159L72.6088 96.7788C71.1352 98.1979 69.1703 98.962 67.0962 98.962C64.9131 98.962 62.9482 98.0887 61.4745 96.5605C58.4726 93.4494 58.6364 88.4281 61.802 85.4262L68.952 78.6037L111.579 36.1406L112.234 36.7956C119.547 44.1093 123.586 53.7153 123.641 63.8126C123.695 73.9099 119.657 83.5159 112.397 90.8296L92.203 110.97L75.3378 94.159Z" fill="white"/>
<path d="M111.524 38.2692C118.292 45.2554 122.058 54.3156 122.113 63.8671C122.167 73.5823 118.292 82.8063 111.306 89.8471L92.2031 108.895L77.412 94.1589L75.3925 92.1394L73.3185 94.1043L71.5719 95.7417C70.3712 96.8879 68.7884 97.5428 67.0964 97.5428C65.3498 97.5428 63.7124 96.8333 62.5117 95.578C60.1102 93.0127 60.2193 88.9738 62.7846 86.5177L69.9345 79.6952L111.524 38.2692ZM111.579 34.1211L67.9151 77.5666L60.7651 84.3891C56.9991 87.9914 56.8354 93.886 60.3831 97.5974C62.1842 99.5077 64.6403 100.436 67.0964 100.436C69.4433 100.436 71.7902 99.5623 73.5914 97.8157L75.3379 96.1783L92.2031 112.989L113.325 91.8665C128.99 76.2021 128.881 51.4229 113.162 35.7585L111.579 34.1211Z" fill="black"/>
<path d="M86.9085 117.629C86.8539 117.629 86.2535 118.12 85.9261 118.393C85.4894 118.721 84.7253 119.212 84.6707 119.212C82.5967 117.138 80.5227 115.064 78.4486 112.99C78.012 112.553 78.1211 111.789 78.6669 111.298C79.2127 110.752 79.9769 110.697 80.3589 111.079L86.9085 117.629Z" fill="black"/>
<path d="M35.8765 113.972L33.9116 112.117L49.0848 96.7796C49.0848 96.7796 52.8508 92.7953 56.8351 96.7796C56.8351 96.7796 58.8546 98.6353 58.1451 101.528C58.1451 101.528 61.1469 100.928 63.221 103.438C65.295 106.004 64.2034 107.914 64.2034 107.914C64.2034 107.914 67.2053 107.15 69.2248 109.77C71.2442 112.389 70.2072 115.173 69.4976 116.21C69.4976 116.21 73.9186 115.937 75.7743 120.14L76.9751 123.032L74.3007 123.851L73.4274 121.613C73.3182 121.341 73.2091 121.122 73.0453 120.849C72.6087 120.194 71.5717 119.048 69.9889 118.939C67.7511 118.721 66.6049 120.14 66.2774 120.467C66.0045 120.795 64.8584 121.723 63.7122 120.522C62.566 119.376 63.8759 117.902 63.9305 117.793C63.9851 117.684 66.7687 115.173 67.0961 114.791C67.369 114.409 68.4061 112.717 66.7141 111.189C65.0221 109.66 63.2756 111.298 63.1664 111.407C63.0572 111.516 59.6733 114.409 59.5641 114.463C59.455 114.518 58.0905 115.391 57.1626 114.191C56.2348 112.99 57.3264 111.898 57.4355 111.789C57.5447 111.68 60.9832 108.405 61.0378 108.296C61.0924 108.187 62.184 106.44 60.7649 104.967C59.2912 103.438 57.4355 104.694 57.2718 104.857C57.108 105.021 54.3245 107.696 54.1607 107.805C53.997 107.914 52.8508 108.569 51.7592 107.641C50.6676 106.713 51.5955 105.349 51.7046 105.185C51.8138 105.076 54.7611 102.183 54.9248 102.019C55.034 101.856 56.2893 100.164 54.5428 98.4716C52.7962 96.7796 50.5585 99.1265 50.3401 99.2903C50.1218 99.454 35.8765 113.972 35.8765 113.972Z" fill="black"/>
</g>
<path d="M148.023 29.9156H171.261V37.1874C174.104 34.0709 177.494 31.7745 181.54 30.2436C185.586 28.7127 189.741 27.8926 194.115 27.8926C203.3 27.8926 210.135 30.2983 214.509 35.1097C218.992 39.8665 221.234 46.3182 221.234 54.5196V95.5262H197.177V57.6361C197.177 50.2549 193.787 46.5369 187.062 46.5369C183.945 46.5369 181.157 47.2477 178.587 48.724C176.017 50.0908 173.885 52.2232 172.135 55.1757V95.5262H148.078V29.9156H148.023ZM268.528 97.6039C260.436 97.6039 253.329 96.1277 247.205 93.2299C241.081 90.2227 236.379 86.122 232.989 80.9279C229.709 75.6243 228.068 69.5553 228.068 62.7209C228.068 55.8865 229.709 49.8721 232.989 44.678C236.379 39.3744 241.081 35.2738 247.205 32.376C253.329 29.3688 260.436 27.8379 268.528 27.8379C276.62 27.8379 283.728 29.3688 289.852 32.376C295.976 35.2738 300.678 39.3744 303.958 44.678C307.348 49.8721 309.043 55.8865 309.043 62.7209C309.043 69.5553 307.348 75.6243 303.958 80.9279C300.678 86.122 295.976 90.2227 289.852 93.2299C283.728 96.1277 276.62 97.6039 268.528 97.6039ZM268.528 78.8502C273.34 78.8502 277.167 77.4286 280.01 74.5855C282.908 71.6877 284.384 67.6964 284.384 62.6662C284.384 57.6361 282.908 53.7541 280.01 50.911C277.167 48.0132 273.34 46.5369 268.528 46.5369C263.717 46.5369 259.835 48.0132 256.882 50.911C254.039 53.7541 252.618 57.6361 252.618 62.6662C252.618 67.6964 254.039 71.633 256.882 74.5855C259.835 77.4286 263.717 78.8502 268.528 78.8502ZM306.856 29.9156H330.913L345.84 68.0791L360.602 29.9156H384.659L357.157 95.5262H334.303L306.856 29.9156ZM412.817 97.6039C404.616 97.6039 397.945 95.6356 392.861 91.699C387.83 87.7076 385.315 82.1307 385.315 75.0229C385.315 67.6417 387.721 62.0101 392.587 58.0735C397.508 54.0822 404.507 52.0592 413.637 52.0592C417.191 52.0592 420.745 52.4966 424.299 53.3167C427.853 54.0275 430.915 55.0663 433.485 56.3239V54.957C433.485 47.9585 427.744 44.4046 416.262 44.4046C408.224 44.4046 400.898 45.9355 394.228 49.052V32.54C397.125 31.1731 400.953 30.0796 405.709 29.2595C410.466 28.33 415.387 27.8926 420.472 27.8926C432.664 27.8926 441.905 30.353 448.083 35.2738C454.371 40.0852 457.542 46.9197 457.542 55.6678V95.5809H434.961V89.9493C432.5 92.3004 429.384 94.214 425.666 95.5809C421.893 96.8931 417.629 97.6039 412.817 97.6039ZM419.925 82.8415C422.768 82.8415 425.393 82.2948 427.853 81.2012C430.313 79.9984 432.172 78.5221 433.485 76.6632V70.9222C429.548 68.2978 425.119 66.9309 420.089 66.9309C416.918 66.9309 414.457 67.6417 412.708 69.0086C410.958 70.3755 410.083 72.3985 410.083 75.0229C410.083 77.4833 410.904 79.3969 412.544 80.7638C414.239 82.1307 416.699 82.8415 419.925 82.8415Z" fill="black"/>
<defs>
<clipPath id="clip0">
<rect width="125.097" height="124.66" fill="white" transform="translate(0.508789 0.554688)"/>
</clipPath>
</defs>
</svg>
