<svg width="1199" height="206" viewBox="0 0 1199 206" fill="none" xmlns="http://www.w3.org/2000/svg">
<path d="M450 3H300V203H450V3Z" fill="#BD7F77"/>
<path d="M450 3H600V203H450V3Z" fill="#BD7F77"/>
<path d="M453 143H353V163H453M453 143V163M453 143H553V163H453M353 183H453M353 183V203M353 183H403V163H303V183H353ZM453 183V203M453 183H553M453 203H353M453 203H553M353 203H303H300H600H553M453 103H353V123H453M453 103V123M453 103H553V123H453M453 63H353V83H453M453 63V83M453 63H553V83H453M453 23H353V43H453M453 23V43M453 23H553V43H453M403 3H303V23H403V3ZM403 3H503M553 183V203M553 183H503V163H600M553 183H600M600 123H503V143H600M600 43H503V63H600M600 3H503M503 3V23H600M600 83H503V103H600M303 123H403V143H303V123ZM303 43H403V63H303V43ZM303 83H403V103H303V83Z" stroke="#D2CBBF" stroke-width="6"/>
<path d="M150 3H0V203H150V3Z" fill="#BD7F77"/>
<path d="M150 3H300V203H150V3Z" fill="#BD7F77"/>
<path d="M153 143H53V163H153M153 143V163M153 143H253V163H153M53 183H153M53 183V203M53 183H103V163H3V183H53ZM153 183V203M153 183H253M153 203H53M153 203H253M53 203H3H0H300H253M153 103H53V123H153M153 103V123M153 103H253V123H153M153 63H53V83H153M153 63V83M153 63H253V83H153M153 23H53V43H153M153 23V43M153 23H253V43H153M103 3H3V23H103V3ZM103 3H203M253 183V203M253 183H203V163H300M253 183H300M300 123H203V143H300M300 43H203V63H300M300 3H203M203 3V23H300M300 83H203V103H300M3 123H103V143H3V123ZM3 43H103V63H3V43ZM3 83H103V103H3V83Z" stroke="#D2CBBF" stroke-width="6"/>
<path d="M1049 3H899V203H1049V3Z" fill="#BD7F77"/>
<path d="M1049 3H1199V203H1049V3Z" fill="#BD7F77"/>
<path d="M1052 143H952V163H1052M1052 143V163M1052 143H1152V163H1052M952 183H1052M952 183V203M952 183H1002V163H902V183H952ZM1052 183V203M1052 183H1152M1052 203H952M1052 203H1152M952 203H902H899H1199H1152M1052 103H952V123H1052M1052 103V123M1052 103H1152V123H1052M1052 63H952V83H1052M1052 63V83M1052 63H1152V83H1052M1052 23H952V43H1052M1052 23V43M1052 23H1152V43H1052M1002 3H902V23H1002V3ZM1002 3H1102M1152 183V203M1152 183H1102V163H1199M1152 183H1199M1199 123H1102V143H1199M1199 43H1102V63H1199M1199 3H1102M1102 3V23H1199M1199 83H1102V103H1199M902 123H1002V143H902V123ZM902 43H1002V63H902V43ZM902 83H1002V103H902V83Z" stroke="#D2CBBF" stroke-width="6"/>
<path d="M749 3H599V203H749V3Z" fill="#BD7F77"/>
<path d="M749 3H899V203H749V3Z" fill="#BD7F77"/>
<path d="M752 143H652V163H752M752 143V163M752 143H852V163H752M652 183H752M652 183V203M652 183H702V163H602V183H652ZM752 183V203M752 183H852M752 203H652M752 203H852M652 203H602H599H899H852M752 103H652V123H752M752 103V123M752 103H852V123H752M752 63H652V83H752M752 63V83M752 63H852V83H752M752 23H652V43H752M752 23V43M752 23H852V43H752M702 3H602V23H702V3ZM702 3H802M852 183V203M852 183H802V163H899M852 183H899M899 123H802V143H899M899 43H802V63H899M899 3H802M802 3V23H899M899 83H802V103H899M602 123H702V143H602V123ZM602 43H702V63H602V43ZM602 83H702V103H602V83Z" stroke="#D2CBBF" stroke-width="6"/>
</svg>
