<svg width="906" height="206" viewBox="0 0 906 206" fill="none" xmlns="http://www.w3.org/2000/svg">
<rect y="123" width="903" height="83" fill="#BD7F77"/>
<path d="M103 123H3V143H103M103 123V143M103 123H203M103 143H203M153 143H53V163H153M153 143V163M153 143H253M153 163H253M103 163H3V183H103M103 163V183M103 163H203M103 183H203M203 163V183M203 163H303M203 183H303M153 183H53V203M153 183V203M153 183H253M153 203H53M153 203H253M53 203H0M253 183V203M253 183H353M253 203H353M203 123V143M203 123H303M203 143H303M303 123V143M303 123H403M303 143H403M253 143V163M253 143H353M253 163H353M353 143V163M353 143H453M353 163H453M303 163V183M303 163H403M303 183H403M403 163V183M403 163H503M403 183H503M353 183V203M353 183H453M353 203H453M453 183V203M453 183H553M453 203H553M403 123V143M403 123H503M403 143H503M503 123V143M503 123H603M503 143H603M453 143V163M453 143H553M453 163H553M553 143V163M553 143H653M553 163H653M503 163V183M503 163H603M503 183H603M603 163V183M603 163H703M603 183H703M553 183V203M553 183H653M553 203H653M653 183V203M653 183H753M653 203H753M603 123V143M603 123H703M603 143H703M703 123V143M703 123H803M703 143H803M653 143V163M653 143H753M653 163H753M753 143V163M753 143H853M753 163H853M703 163V183M703 163H803M703 183H803M753 183V203M753 183H853M753 203H853M803 123V143M803 123H903V143M803 143H903M853 143V163M853 143H903M853 163H903M803 163V183M803 163H903M803 183H903M853 183V203M853 183H903M853 203H903V183M903 143V163M903 163V183" stroke="#D2CBBF" stroke-width="6"/>
<rect x="3" y="3" width="900" height="120" fill="#D2CBBF" stroke="#D2CBBF" stroke-width="6"/>
</svg>
